<svg xmlns="http://www.w3.org/2000/svg" viewBox="0 0 1174.28 468.71">
  <defs>
    <style>
      .a {
        fill: #fffbf4;
      }
    </style>
  </defs>
  <g>
    <polygon class="a" points="523.44 164.18 452.56 164.18 452.56 151.87 454.56 151.87 454.56 162.18 521.44 162.18 521.44 75.36 509.71 75.36 509.71 73.36 523.44 73.36 523.44 164.18"/>
    <polygon class="a" points="535.6 174.4 465.61 174.4 465.61 162.35 467.61 162.35 467.61 172.4 533.6 172.4 533.6 87.63 522.04 87.63 522.04 85.63 535.6 85.63 535.6 174.4"/>
    <g>
      <rect class="a" x="448.36" y="78.53" width="20.23" height="2"/>
      <rect class="a" x="448.36" y="85.63" width="20.23" height="2"/>
      <rect class="a" x="448.36" y="92.73" width="20.23" height="2"/>
      <rect class="a" x="448.36" y="99.82" width="23.33" height="2"/>
      <rect class="a" x="448.36" y="105.99" width="54.88" height="2"/>
      <rect class="a" x="448.36" y="112.16" width="54.88" height="2"/>
      <rect class="a" x="448.36" y="118.33" width="44.51" height="2"/>
      <rect class="a" x="448.36" y="130.66" width="44.51" height="2"/>
      <rect class="a" x="448.36" y="124.49" width="30.48" height="2"/>
      <rect class="a" x="448.36" y="136.83" width="30.48" height="2"/>
      <path class="a" d="M503.38,101.86H478.24V76.73h25.14Zm-23.14-2h21.14V78.73H480.24Z"/>
    </g>
    <polygon class="a" points="449.36 71.94 441.36 71.94 441.36 69.94 447.36 69.94 447.36 63.37 449.36 63.37 449.36 71.94"/>
    <path class="a" d="M511.24,153.19H440.36V70.54l7.56-8.17h63.32Zm-68.88-2h66.88V64.37H448.8l-6.44,7Z"/>
  </g>
  <g>
    <polygon class="a" points="689.98 120.1 664.34 145.89 674.3 121.44 662.65 122.43 688.81 97.58 679.23 121.02 689.98 120.1"/>
    <g>
      <rect class="a" x="671.42" y="171.49" width="2.99" height="2" transform="translate(-0.34 1.31) rotate(-0.11)"/>
      <rect class="a" x="725.26" y="171.49" width="2.99" height="2" transform="translate(-0.34 1.42) rotate(-0.11)"/>
      <rect class="a" x="667.24" y="165.17" width="5.82" height="2"/>
      <rect class="a" x="722.43" y="165.17" width="6.54" height="2"/>
      <rect class="a" x="663.84" y="158.85" width="16.4" height="2"/>
      <rect class="a" x="720.34" y="158.85" width="6.59" height="2"/>
      <rect class="a" x="693.26" y="158.85" width="4.22" height="2" transform="translate(-0.31 1.36) rotate(-0.11)"/>
      <rect class="a" x="651.28" y="152.53" width="72.35" height="2"/>
      <rect class="a" x="671.22" y="146.22" width="51.21" height="2"/>
      <rect class="a" x="634.28" y="146.22" width="24.56" height="2"/>
      <rect class="a" x="676.65" y="139.89" width="48.3" height="2"/>
      <rect class="a" x="624.21" y="139.89" width="35.43" height="2"/>
      <rect class="a" x="682.9" y="133.58" width="47.34" height="2"/>
      <rect class="a" x="614.86" y="133.58" width="47.91" height="2"/>
      <rect class="a" x="688.57" y="127.26" width="45.89" height="2"/>
      <rect class="a" x="608.38" y="127.26" width="57.15" height="2"/>
      <rect class="a" x="696.28" y="120.94" width="37.11" height="2"/>
      <rect class="a" x="605.96" y="120.94" width="49.35" height="2"/>
      <rect class="a" x="695.13" y="114.62" width="40.32" height="2"/>
      <rect class="a" x="604.13" y="114.62" width="58.34" height="2"/>
      <rect class="a" x="688.57" y="108.31" width="48.44" height="2"/>
      <rect class="a" x="603.09" y="108.31" width="66.59" height="2"/>
      <rect class="a" x="690.51" y="101.99" width="8.15" height="2"/>
      <rect class="a" x="603.09" y="101.99" width="73.85" height="2"/>
      <rect class="a" x="703.76" y="101.99" width="8.34" height="2"/>
      <rect class="a" x="721.91" y="101.99" width="18.05" height="2"/>
      <rect class="a" x="693.26" y="95.66" width="5.4" height="2"/>
      <rect class="a" x="604.39" y="95.67" width="77.32" height="2"/>
      <rect class="a" x="704.35" y="95.67" width="4.9" height="2" transform="translate(-0.28 2.07) rotate(-0.17)"/>
      <rect class="a" x="728.48" y="95.67" width="14.71" height="2"/>
      <rect class="a" x="606.68" y="89.14" width="98.75" height="2"/>
      <rect class="a" x="733.39" y="89.14" width="11.41" height="2"/>
      <rect class="a" x="742.38" y="82.83" width="7.09" height="2"/>
      <rect class="a" x="608.71" y="82.83" width="77.32" height="2"/>
      <rect class="a" x="610.08" y="76.3" width="24" height="2"/>
      <rect class="a" x="742.38" y="76.3" width="5.25" height="2"/>
      <rect class="a" x="615.62" y="68.7" width="2" height="4.58" transform="matrix(0, -1, 1, 0, 544.19, 687.44)"/>
    </g>
  </g>
  <g>
    <rect class="a" x="829.16" y="77.37" width="24.78" height="2"/>
    <rect class="a" x="829.16" y="86.06" width="24.78" height="2"/>
    <rect class="a" x="829.16" y="94.75" width="24.78" height="2"/>
    <rect class="a" x="829.16" y="103.44" width="28.58" height="2"/>
    <rect class="a" x="829.16" y="110.99" width="67.22" height="2"/>
    <rect class="a" x="829.16" y="118.55" width="67.22" height="2"/>
    <rect class="a" x="829.16" y="126.1" width="11.06" height="2"/>
    <rect class="a" x="829.16" y="141.21" width="4.07" height="2"/>
    <rect class="a" x="829.16" y="133.66" width="7.4" height="2"/>
    <g>
      <g>
        <path class="a" d="M861.41,172.86a24.32,24.32,0,1,1,8.73-1.63h0A24.35,24.35,0,0,1,861.41,172.86Zm0-46.64a22.31,22.31,0,0,0-20.79,30.36,22.32,22.32,0,1,0,20.79-30.36Z"/>
        <path class="a" d="M799.49,180.7a6.77,6.77,0,0,1-3.33-.93,9.08,9.08,0,0,1-3.85-4.63c-1.62-4.2-.09-8.72,3.42-10.08l41.69-13.44,4.11,10.63-39.86,18A5.91,5.91,0,0,1,799.49,180.7Zm36.75-26.59L796.4,167c-2.43.94-3.45,4.3-2.22,7.47a7,7,0,0,0,3,3.61,4.33,4.33,0,0,0,3.74.41L839,161.21Z"/>
      </g>
      <rect class="a" x="849.52" y="137.02" width="23.59" height="4"/>
      <rect class="a" x="846.92" y="150.45" width="33.95" height="4"/>
      <rect class="a" x="848.98" y="143.74" width="16.6" height="4"/>
      <rect class="a" x="850.34" y="157.17" width="20.49" height="4"/>
    </g>
    <path class="a" d="M895.53,105.63H866V75.15h29.55Zm-27.55-2h25.55V77.15H868Z"/>
    <polygon class="a" points="830.16 68.83 820.59 68.83 820.59 66.83 828.16 66.83 828.16 58.57 830.16 58.57 830.16 68.83"/>
    <polygon class="a" points="905.95 174.11 878 174.11 878 172.11 903.95 172.11 903.95 59.57 829.6 59.57 821.59 68.22 821.59 148.29 819.59 148.29 819.59 67.44 828.72 57.57 905.95 57.57 905.95 174.11"/>
  </g>
  <g>
    <polygon class="a" points="362.45 175.49 260.98 175.49 260.98 63.37 262.98 63.37 262.98 173.49 362.45 173.49 362.45 175.49"/>
    <path class="a" d="M325.44,157.71H261V138h64.46Zm-62.46-2h60.46V140H263Z"/>
    <path class="a" d="M299.32,92.62H261V72.92h38.34Zm-36.34-2h34.34V74.92H263Z"/>
    <g>
      <path class="a" d="M352.47,124.92H261v-19.7h91.49Zm-89.49-2h87.49v-15.7H263Z"/>
      <g>
        <rect class="a" x="342.07" y="102.62" width="2" height="24.61" transform="matrix(0.73, -0.68, 0.68, 0.73, 13.95, 265.21)"/>
        <rect class="a" x="329.95" y="102.62" width="2" height="24.61" transform="matrix(0.73, -0.68, 0.68, 0.73, 10.69, 256.94)"/>
        <rect class="a" x="317.84" y="102.62" width="2" height="24.61" transform="matrix(0.73, -0.68, 0.68, 0.73, 7.42, 248.67)"/>
        <rect class="a" x="305.73" y="102.62" width="2" height="24.61" transform="matrix(0.73, -0.68, 0.68, 0.73, 4.16, 240.4)"/>
        <rect class="a" x="293.61" y="102.62" width="2" height="24.61" transform="translate(0.9 232.13) rotate(-43.06)"/>
        <rect class="a" x="281.5" y="102.62" width="2" height="24.61" transform="translate(-2.36 223.86) rotate(-43.06)"/>
        <rect class="a" x="269.39" y="102.62" width="2" height="24.61" transform="matrix(0.73, -0.68, 0.68, 0.73, -5.63, 215.58)"/>
      </g>
    </g>
  </g>
  <g>
    <g>
      <path class="a" d="M163.82,116.84H109.36V62.37h1a53.53,53.53,0,0,1,53.46,53.47Zm-52.46-2h50.45a51.52,51.52,0,0,0-50.45-50.46Z"/>
      <path class="a" d="M103,176.76a53.47,53.47,0,1,1,0-106.93h1V122.3H156.5v1A53.52,53.52,0,0,1,103,176.76ZM102,71.84a51.46,51.46,0,1,0,52.45,52.46H102Z"/>
    </g>
    <rect class="a" x="114.14" y="104.36" width="2" height="13.52" transform="translate(-44.85 113.97) rotate(-45)"/>
    <rect class="a" x="120.77" y="88.8" width="2" height="31.75" transform="translate(-38.35 116.76) rotate(-45)"/>
    <rect class="a" x="127.02" y="73.53" width="2" height="49.56" transform="translate(-32.02 119.32) rotate(-45)"/>
    <rect class="a" x="133.85" y="56.7" width="2" height="69.29" transform="translate(-25.09 122.11) rotate(-45)"/>
    <rect class="a" x="140.24" y="55.87" width="2" height="58.15" transform="translate(-18.7 124.76) rotate(-45)"/>
  </g>
  <g>
    <g>
      <g>
        <path class="a" d="M1040.64,164.68a56.51,56.51,0,1,1,81.66-50.61h-2a54.5,54.5,0,1,0-78.76,48.81Z"/>
        <rect class="a" x="1024.44" y="147.34" width="13.83" height="2" transform="translate(185.27 756.48) rotate(-43.89)"/>
        <rect class="a" x="1010.3" y="113.07" width="16.08" height="2"/>
        <rect class="a" x="1030.36" y="73.02" width="2" height="14.51" transform="translate(226.49 730.14) rotate(-43.37)"/>
        <rect class="a" x="1064.8" y="58.57" width="2" height="13.97"/>
      </g>
      <polygon class="a" points="1033.75 181.8 1032.34 180.39 1065.78 146.94 1084.38 164.92 1122.96 122.06 1124.45 123.39 1084.48 167.8 1065.81 149.74 1033.75 181.8"/>
      <polygon class="a" points="1124.71 136.48 1122.71 136.48 1122.71 123.72 1110.57 123.72 1110.57 121.72 1124.71 121.72 1124.71 136.48"/>
    </g>
    <path class="a" d="M1092.32,78.11l-21.83,23.41a11.25,11.25,0,0,0-6.8-.28,11.38,11.38,0,1,0,12.92,5.48l16-28.38A.2.2,0,0,0,1092.32,78.11Z"/>
  </g>
  <g>
    <g>
      <path class="a" d="M580.41,350.78H524.85V295.22h55.56Zm-53.56-2h51.56V297.22H526.85Z"/>
      <g>
        <rect class="a" x="551.63" y="314.72" width="2" height="16.56"/>
        <rect class="a" x="544.35" y="322" width="16.56" height="2"/>
      </g>
    </g>
    <g>
      <path class="a" d="M634,350.78H578.41V295.22H634Zm-53.55-2H632V297.22H580.41Z"/>
      <rect class="a" x="597.91" y="322" width="16.56" height="2"/>
    </g>
    <g>
      <path class="a" d="M634,404.71H578.41V349.15H634Zm-53.55-2H632V351.15H580.41Z"/>
      <g>
        <rect class="a" x="597.91" y="379.84" width="16.56" height="2"/>
        <rect class="a" x="597.91" y="372.03" width="16.56" height="2"/>
      </g>
    </g>
    <g>
      <path class="a" d="M580.41,404.71H524.85V349.15h55.56Zm-53.56-2h51.56V351.15H526.85Z"/>
      <g>
        <rect class="a" x="544.35" y="375.93" width="16.56" height="2" transform="translate(-104.67 501.17) rotate(-45)"/>
        <rect class="a" x="551.63" y="368.65" width="2" height="16.56" transform="translate(-104.67 501.15) rotate(-45)"/>
      </g>
    </g>
  </g>
  <g>
    <path class="a" d="M800.92,403.47a54.76,54.76,0,1,1,54.76-54.76A54.82,54.82,0,0,1,800.92,403.47Zm0-107.52a52.76,52.76,0,1,0,52.76,52.76A52.82,52.82,0,0,0,800.92,296Z"/>
    <path class="a" d="M789.83,337.62l-14.61,36.79L812,359.8,826.62,323Zm11.09,17a5.95,5.95,0,1,1,6-6A5.95,5.95,0,0,1,800.92,354.66Z"/>
    <g>
      <rect class="a" x="799.92" y="294.95" width="2" height="12.03"/>
      <rect class="a" x="799.92" y="390.44" width="2" height="12.03"/>
    </g>
    <g>
      <rect class="a" x="747.16" y="347.71" width="12.03" height="2"/>
      <rect class="a" x="842.65" y="347.71" width="12.03" height="2"/>
    </g>
  </g>
  <g>
    <g>
      <rect class="a" x="278.01" y="409.15" width="113.3" height="2"/>
      <path class="a" d="M304.92,411.15H285.44v-75h19.48Zm-17.48-2h15.48v-71H287.44Z"/>
      <path class="a" d="M355.43,411.15H336v-75h19.48Zm-17.48-2h15.48v-71H338Z"/>
      <path class="a" d="M380.69,411.15H361.21V357.61h19.48Zm-17.48-2h15.48V359.61H363.21Z"/>
    </g>
    <g>
      <path class="a" d="M330.17,410.59h-19V301.34h19Zm-17-2h15V303.34h-15Z"/>
      <g>
        <rect class="a" x="307.24" y="311.41" width="26.56" height="2" transform="translate(-125.34 351.65) rotate(-49.3)"/>
        <rect class="a" x="307.24" y="325.93" width="26.56" height="2" transform="translate(-136.35 356.7) rotate(-49.3)"/>
        <rect class="a" x="307.24" y="340.45" width="26.56" height="2" transform="translate(-147.35 361.75) rotate(-49.3)"/>
        <rect class="a" x="307.24" y="354.96" width="26.56" height="2" transform="translate(-158.36 366.8) rotate(-49.3)"/>
        <rect class="a" x="307.24" y="369.48" width="26.56" height="2" transform="translate(-169.37 371.85) rotate(-49.3)"/>
        <rect class="a" x="307.24" y="384" width="26.56" height="2" transform="translate(-180.37 376.9) rotate(-49.3)"/>
        <rect class="a" x="307.24" y="398.52" width="26.56" height="2" transform="translate(-191.38 381.95) rotate(-49.3)"/>
      </g>
    </g>
  </g>
</svg>
